<svg xmlns="http://www.w3.org/2000/svg" xmlns:xlink="http://www.w3.org/1999/xlink" width="500" zoomAndPan="magnify" viewBox="0 0 375 374.999991" height="500" preserveAspectRatio="xMidYMid meet" version="1.2"><defs><clipPath id="bb24270f88"><path d="M 72.839844 58 L 302.140625 58 L 302.140625 317 L 72.839844 317 Z M 72.839844 58 "/></clipPath><clipPath id="6b00e929c9"><path d="M 173.878906 312.988281 L 86.453125 262.125 C 78.027344 257.222656 72.839844 248.207031 72.839844 238.453125 L 72.839844 136.542969 C 72.839844 126.792969 78.027344 117.777344 86.453125 112.875 L 173.878906 62.007812 C 182.292969 57.113281 192.6875 57.113281 201.105469 62.007812 L 288.527344 112.875 C 296.957031 117.777344 302.140625 126.792969 302.140625 136.542969 L 302.140625 238.453125 C 302.140625 248.207031 296.957031 257.222656 288.527344 262.125 L 201.105469 312.988281 C 192.6875 317.886719 182.292969 317.886719 173.878906 312.988281 Z M 173.878906 312.988281 "/></clipPath></defs><g id="d30e16d0d3"><path style="fill:none;stroke-width:20;stroke-linecap:round;stroke-linejoin:miter;stroke:#ffffff;stroke-opacity:1;stroke-miterlimit:4;" d="M 10.855011 14.628445 C 29.303706 212.567567 90.041301 212.147469 193.067796 13.36815 " transform="matrix(0.720592,-0.207958,0.207958,0.720592,108.842889,158.520928)"/><g clip-rule="nonzero" clip-path="url(#bb24270f88)"><g clip-rule="nonzero" clip-path="url(#6b00e929c9)"><path style=" stroke:none;fill-rule:nonzero;fill:#f2b0aa;fill-opacity:1;" d="M 302.140625 54.089844 L 302.140625 321.007812 L 72.839844 321.007812 L 72.839844 54.089844 Z M 302.140625 54.089844 "/></g></g><g style="fill:#ffffff;fill-opacity:1;"><g transform="translate(146.19814, 237.744748)"><path style="stroke:none" d="M 69.484375 -110.046875 C 75.890625 -110.046875 79.09375 -108.660156 79.09375 -105.890625 C 79.09375 -105.410156 79.046875 -104.929688 78.953125 -104.453125 L 54.875 -3.015625 C 54.394531 -0.816406 53.773438 0.613281 53.015625 1.28125 C 52.253906 1.957031 49.960938 2.296875 46.140625 2.296875 C 37.253906 2.296875 32.332031 0.476562 31.375 -3.15625 L 3.578125 -104.734375 C 3.484375 -105.117188 3.4375 -105.503906 3.4375 -105.890625 C 3.4375 -108.660156 6.6875 -110.046875 13.1875 -110.046875 C 16.332031 -110.046875 18.789062 -109.640625 20.5625 -108.828125 C 22.332031 -108.015625 23.503906 -106.460938 24.078125 -104.171875 L 43.5625 -27.796875 L 60.75 -104.875 C 61.132812 -106.882812 61.945312 -108.25 63.1875 -108.96875 C 64.425781 -109.6875 66.523438 -110.046875 69.484375 -110.046875 Z M 69.484375 -110.046875 "/></g></g></g></svg>